P1
33 33
111111111111111111111111111111111
100010000000000010000000000010001
100010000000000010000000000010001
100010000000000010000000000010001
100011111000100010001000111110001
100000001000100010001000100000001
100000001000100010001000100000001
100000001000100010001000100000001
100011111000100010001000111110001
100000000000100000001000000000001
100000000000100000001000000000001
100000000000100000001000000000001
111111111000111111111000111111111
100000001000000000000000100000001
100000001000000000000000100000001
100000001000000000000000100000001
100011111111100010001111111110001
100000000000000010000000000000001
100000000000000010000000000000001
100000000000000010000000000000001
111110001111111111111111100011111
100010000000100000001000000010001
100010000000100000001000000010001
100010000000100000001000000010001
100010001000100010001000100010001
100000001000000010000000100000001
100000001000000010000000100000001
100000001000000010000000100000001
100011111000100010001000111110001
100010000000100010001000000010001
100010000000100010001000000010001
100010000000100010001000000010001
111111111000111111111000111111111
