P1
166 231
0000000000000000000000001001100000000000000000000110000000000000000000
0000001111000000110000000000010000000000000000000000000000000000000001
00000000000000000000000000
0000000000000000000000001001100000000000000000000110000000000000000000
0000001111000000110000000000010000000000000000000000000000000000000001
00000000000000000000000000
0000000000000000000000001001100000000000000000000110000000000000000000
0000001111000000110000000000010000000000000000000000000000000000000001
00000000000000000000000000
0000000000000000000000001001100000000000000000000110000000000000000000
0000001111000000110000000000010000000000000000000000000000000000000001
00000000000000000000000000
0000000000000000000000001001100000000000000000000110000000000000000000
0000001111000000110000000000010000000000000000000000000000000000000001
00000000000000000000000000
0000000000000000000000001001100000000000000000000110000000000000000000
0000001111000000110000000000010000000000000000000000000000000000000001
00000000000000000000000000
0000000000000000000000001001100000000000000000000110000000000000000000
0000001111000000110000000000010000000000000000000000000000000000000001
00000000000000000000000000
0000000000000000000000001001100000000000000000000110000000000000000000
0000001111000000110000000000010000000000000000000000000000000000000001
00000000000000000000000000
0000000000000000000000001001100000000000000000000110000000000000000000
0000001111000000110000000000010000000000000000000000000000000000000001
00000000000000000000000000
0000000000000000000000001001100000000000000000000110000000000000000000
0000001111000000110000000000010000000000000000000000000000000000000001
00000000000000000000000000
0000000000000000000000001001100000000000000000000110000000000000000000
0000001111000000110000000000010000000000000000000000000000000000000001
00000000000000000000000000
0000000000000000000000001001100000000000000000000110000000000000000000
0000001111000000110000000000010000000000000000000000000000000000000001
00000000000000000000000000
0000000000000000000000001001100000000000000000000110000000000000000000
0000001111000000110000000000010000000000000000000000000000000000000001
00000000000000000000000000
0000000000000000000000001001100000000000000000000110000000000000000000
0000001111000000110000000000010000000000000000000000000000000000000001
00000000000000000000000000
0000000000000000000000001001100000000000000000000110000000000000000000
0000001111000000110000000000010000000000000000000000000000000000000001
00000000000000000000000000
0000000000000000000000001001100000000000000000000110000000000000000000
0000001111000000110000000000010000000000000000000000000000000000000001
00000000000000000000000000
0011000011100000000000011101000000000000000000000100000011000000000000
0000001000000000011000000000110000000000000000000000000000000000000001
00000000000000011000011100
0001100011000000000000001001100000000000000000001000000011000000000000
0000011000000000001100000000000000000000000000000000000000000000000000
00000000000000001100011000
0011100011000000000000001001000000000000000000001000000010100000000000
0000001000000000000000000011110000110111100000111101000111000111000001
00000000000000011100011000
0000110101000000000000001001000000000000000000010000000100100000000000
0000001000000000000000000000010000011000110001000011000010000010000001
00000000000000000110101000
0010110001000000000000000000000000000000000000010000000100010000000000
0000001000000000000000000000010000110000010011000010000011000100000001
00000000000000010110001000
0000011101000000000000000000000000000000000000100000001000010000000000
0000011000000000000000000000011000010000011010000011000001000000000000
00000000000000000011101000
0010010001000000000000000000000000000000000000100000000000000000000000
0000001000000000000000000000010000011000010011000010000001101000000001
00000000000000010011001000
0010011001000000000000000000000000000000000001000000000000000000000000
0000001000000000000000000000010000010000110011000011000001101000000010
00000000000000010010001000
0000000001000000000000000000000000011000000001000000000000000000000000
0000001000000000000000000000110000111000100001000010000000111000000001
00000000000000000000001000
0111000011100000000000000000000000011000000001000000000000000000000000
0000011000000000000000000000010000010111100000111111000000110000000000
00000000000000111000011100
0000000000000000000000000000000000001000000010000000000000000000000000
0000001000000000000000000100110000010000000000000010000000000000000001
00000000000000000000000000
0000000000000000000000000000000000010000000010000000000000000000000000
0000001000000000000000000111000000010000000000000011000000100000000010
00000000000000000000000000
0000000000000000000000000000000000000000000000000000000000000001111111
1000011100000000000000000000000000110000000000000010000001000000000001
00000000000000000000000000
0000000000000000000000000000000000000000000000000000000000000000000000
0000000101000000000000000000000000111100000000000111100011000000000000
00000000000000000000000000
0000000000000000000000000000000000000000000000000000000000000000000000
0000000000000000000000000000000000000000000000000000000000000000000000
00000000000000000000000000
0000000000000000000000000000000000000000000000000000000000000000000000
0000000000000000000000000000000000000000000000000000000000000000000000
00000000000000000000000000
0000000000000000000000000000000000000000000000000000000000000000000000
0000000000000000000000000000000000000000000000000000000000000000000000
00000000000000000000000000
0000000000000000000000000000000000000000000000000000000000000000000000
0000000000000000000000000000000000000000000000000000000000000000000000
00000000000000000000000000
0000000000000000000000000000000000000000000000000000000000000000000000
0000000000000000000000000000000000000000000000000000000000000000000000
00000000000000000000000000
0000000000000000000000000000000000000000000000000000000000000000000000
0000000000000000000000000000000000000000000000000000000000000000000000
00000000000000000000000000
0000000000000000000000000000000000000000000000000000000000000000000000
0000000000000000000000000000000000000000000000000000000000000000000000
00000000000000000000000000
0000000000000000000000000000000000000000000000000000000000000000000000
0000000000000000000000000000000000000000000000000000000000000000000000
00000000000000000000000000
0000000000000000000000000000000000000000000000000000000000000000000000
0000000000000000000000000000000000000000000000000000000000000000000000
00000000000000000000000000
0000000000000000000000000000000000000000000000000000000000000000000000
0000000000000000000000000000000000000000000000000000000000000000000000
00000000000000000000000000
0000000000000000000000000000000000000000000000000000000000000000000000
0000000000000000000000000000000000000000000000000000000000000000000000
00000000000000000000000000
0000000000000000000000000000000000000000000000000000000000000000000000
0000000000000000000000000000000000000000000000000000000000000000000000
00000000000000000000000000
0000000000000000000000000000000000000000000000000000000000000000000000
0000000000000000000000000000000000000000000000000000000000000000000000
00000000000000000000000000
0000000000000000000000000000000000000000000000000000000000000000000000
0000000000000000000000000000000000000000000000000000000000000000000000
00000000000000000000000000
0000000000000000000000000000000000000000000000000000000000000000000000
0000000000000000000000000000000000000000000000000000000000000000000000
00000000000000000000000000
0000000000000000000000000000000000000000000000000000000000000000000000
0000000000000000000000000000000000000000000000000000000000000000000000
00000000000000000000000000
0000000000000000000000000000000000000000000000000000000000000000000000
0000000000000000000000000000000000000000000000000000000000000000000000
00000000000000000000000000
0000000000000000000000000000000000000000000000000000000000000000000000
0000000000000000000000000000000000000000000000000000000000000000000000
00000000000000000000000000
0000000000000000000000000000000000000000000000000000000000000000000000
0000000000000000000000000000000000000000000000000000000000000000000000
00000000000000000000000000
0000000000000000000000000000000000000000000000000000000000000000000000
0000000000000000000000000000000000000000000000000000000000000000000000
00000000000000000000000000
0000000000000000000000000000000000000000000000000000000000000000000000
0000000000000000000000000000000000000000000000000000000000000000000000
00000000000000000000000000
0000000000000000000000000000000000000000000000000000000000000000000100
0000000000000000000000000000000000000000000001000000000000000000000000
00000000000000000000000000
0000000011000000000000000000000000010000000001001100000100010000001101
0000000000000000000000000001100000000000100000100000000000100000000000
00000000000000000000011000
0000000010000000000000000000000000011000000001101100000100010000010101
0000110000100000011000000000100000000001000000010000000001111000000000
00000000000000000000010000
0000000100000000000000000000000000011000000001001000000100010000100100
0001001101000000100100000001100000000010000000011000000000100000000000
00000000000000000000100000
0000000100000000000000000000000000010000000001001000001111111000110100
0001000001000000101100000000100000000110000000001100000001110000000001
00000000000000000000100000
0000001000000000000000000000000000001000000001001000000100010000011000
0001010010000000110011000000100000000100000000001000000000000000000001
00000000000000000001000000
0000001000000000000000000000000000010000000000000000000100100000001111
0000100100000000110001000000000000001100000000001100000000000000000001
00000000000000000001000000
0000001000000000000000000000000000000000000000000000000100000000000111
0000001001100011011000000000000000001100000000000100000000000000011111
11100000000000000001000000
0000010000000000000000000000000000000000000000000000011111111000001001
1000001010010010001110000000000000000100000000001100000000000000000001
00000000000000000010000000
0000100000000000000000000000000000000000000000000000001000100000100001
1000010010000010000100000000000000001100000000000100000000000000000010
00000000000000000100000000
0000100000000000000000000000000000011000000000000000001000100000100101
0000100010010010000110000000000000000100000000001100000000000000000001
00000000000000000100000000
0000100000000000000000000000000000011000000000000000000000100000111100
0000100001100011101011000000000000000100000000001000000000000000000001
00000000000000000100000000
0001000000000000000000000000000000000000000000000000000000000000000000
0000000000000000000000000000000000000110000000010000000000000000000000
00000000000000001000000000
0001000000000000000000000000000000000000000000000000000000000000001000
0000000000000000000000000000000000000010000000110000000000000000000000
00000000000000001000000000
0000000000000000000000000000000000000000000000000000000000000000000000
0000000000000000000000000000000000000001000001000000000000000000000000
00000000000000000000000000
0000000000000000000000000000000000000000000000000000000000000000000000
0000000000000000000000000000000000000000100000000000000000000000000000
00000000000000000000000000
0000000000000000000000000000000000000000000000000000000000000000000000
0000000000000000000000000000000000000000000000000000000000000000000000
00000000000000000000000000
0000000000000000000000000000000000000000000000000000000000000000000000
0000000000000000000000000000000000000000000000000000000000000000000000
00000000000000000000000000
0000000000000000000000000000000000000000000000000000000000000000000000
0000000000000000000000000000000000000000000000000000000000000000000000
00000000000000000000000000
0000000000000000000000000000000000000000000000000000000000011000001100
0000000000000000011000000010110000000001000000000000000000011000000000
00000000000000000000000000
0000000000000000000000000000000000000000000000000000000000010000010011
0000001100000001000110000100011000000011000000111110000000100000001111
11100000000000000000000000
0000000000000000000000000000000000000000000000000000000000100000100001
0000111100000001000011000100001000000101000001000000000001000000011001
01000000000000000000000000
0000000000000000000000000000000000000000000000000000000000100000100001
1000000100000000000010000000011000001011000000100000000011000000000000
01000000000000000000000000
0000000111000000000000000000000000000000000000000000000001000001100001
0000000100000000000110000001100000000001000001111100000011011000000000
10000000000000000000111000
0000011000000000000000000000000000000000000000000000000001000000100001
1000000110000000000100000000111000010011000000000110000110000110000000
10000000000000000011000000
0001100000000000000000000000000001111110000000000000000010000001100001
1000000100000000011000000000001100010001000000000011000010000110000001
00000000000000001100000000
0001110000000000000000000000000000000000000000000000000010000000100001
0000000100000000010000000000001100011111110000000010000110000110000001
00000000000000001110000000
0000011000000000000000000000000000000000000000000000000010000000100001
0000000110000000100001000000001000000001000000000011000010000100000011
00000000000000000011000000
0000000110000000000000000110000000000000000000110000000100000000110001
0000001100000001100010000100011000000011000001000110000011000100000010
00000000000000000000110000
0000000001000000000000000110000000000000000000110000001000000000001110
0000011111000001111110000111010000000111110001111000000000111000000110
00000000000000000000001000
0000000000000000000000000010000000000000000000000000001000000000000000
0000000000000000000000000000000000000000000000000000000000000000000000
00000000000000000000000000
0000000000000000000000000100000000000000000000000000001000000000000000
0000000000000000000000000000000000000000000000000000000000000000000000
00000000000000000000000000
0000000000000000000000000000000000000000000000000000000000000000000000
0000000000000000000000000000000000000000000000000000000000000000000000
00000000000000000000000000
0000000000000000000000000000000000000000000000000000000000000000000000
0000000000000000000000000000000000000000000000000000000000000000000000
00000000000000000000000000
0000000000000000000000000000000000000000000000000000000000000000000000
0000000000000000000000000000000000000000000000000000000000000000000000
00000000000000000000000000
0000000000000000000000000000000000000000000000000000000000000000000000
0000000000000000000000000000000000000000000000000000000000000000000000
00000000000000000000000000
0000000000000000000000000000000000000000000000000000000000000000000000
0000000000000000000000000000000000000000000000000000000000000000000000
00000000000000000000000000
0000000000000000000000000111000000111000000000000000000000000000000000
0000000000000000000000000001010000000000000000000000000000000000000000
00000000000000000000000000
0000000000000000000000011000100001000110000000000000000000000000000000
0000000000000000000000000010011000000101000000011000000111111000000011
01100000000000000000000000
0000000000000000000000010000100001000011000000000000000000000000000000
0000000000000000000000000100001100010000100000001000000010000100001100
00100000000000000000000000
0000000000000000000000011000100011000001000000000000000000000000000000
0000000000000000000000000100001000010000010000011100000011000110001000
00010000000000000000000000
0001100000000000000000001111000001000011000000110000000011000000000011
1000000000000001100000000000011000100101011000100100000010000100010000
00000000000000001100000000
0000011000000000000000000111100001100001000000110000000011000000001100
0000111111100000011000000000100000101001100000000110000011111000110000
00000000000000000011000000
0000000110000000000000011000100000111011000000000000000000000000110000
0000000000000000000110000000100001101001001001111110000010000110011000
00000000000000000000110000
0000000111000000000000010000110000000010000000000000000000000000111000
0000000000000000000111000000000000101001011000000010000011000010010000
00000000000000000000111000
0000011000000000000000100000010000000110000000000000000000000000001100
0000111111000000011000000000000000101101010001000011000010000011011000
00000000000000000011000000
0001110000000000000000010000110000001100000000110000000000000000000011
0000000000000001110000000001100000100001000010000001000011000110001100
00100000000000001110000000
0000000000000000000000011101000000110000000000110000000011000000000000
1000000000000000000000000001000000010000000111000111100111111000000011
10000000000000000000000000
0000000000000000000000000000000000000000000000000000000001100000000000
0000000000000000000000000000000000000111000000000000000000000000000000
00000000000000000000000000
0000000000000000000000000000000000000000000000000000000001000000000000
0000000000000000000000000000000000000000000000000000000000000000000000
00000000000000000000000000
0000000000000000000000000000000000000000000000000000000010000000000000
0000000000000000000000000000000000000000000000000000000000000000000000
00000000000000000000000000
0000000000000000000000000000000000000000000000000000000000000000000000
0000000000000000000000000000000000000000000000000000000000000000000000
00000000000000000000000000
0000000000000000000000000000000000000000000000000000000000000000000000
0000000000000000000000000000000000000000000000000000000000000000000000
00000000000000000000000000
0000000000000000000000000000000000000000000000000000000000000000000000
0000000000000000000000000000000000000000000000000000000000000000000000
00000000000000000000000000
0000000000000000000000000000000000000000000000000000000000000000000000
0000000000000000000000000000000000000000000000000000000000000000000000
00000000000000000000000000
0000000000000000000000000000000000000000000000000000000000000000000000
0000000000000000000000000000000000000000000000000000000000000000000000
00000000000000000000000000
0000101100000000000000111111000011111111000111111111000011111001110011
1100011111000000111111001111001110111100000011000011100110000111000111
10000000000000000101100000
0001000010000000000000110000110001000000000001000001001100001001100000
1000000100000000001100000100001000001000000001100011000111000010001000
01100000000000001000010000
0010000001000000000000010000010001100000000001000000011000001000100001
1000001100000000001000000100010000011000000011100001000011000010011000
00100000000000010000001000
0010010101100000000000110000010001000000000001100000010000000001100001
1000000100000000001100000110100000001000000000110101000101100010010000
00110000000000010010101100
0010100100100000000000010000011001101110000001111100010000000000111101
1000001100000000001100000111100000011000000010110101000000110010010000
00110000000000010100100100
0010100101000000000000110000011001100000000001000100110000010101100001
0000000100000000001000001100100000001000000000011001000100010010110000
00110000000000100100101000
0010101100100000000000010000010001000000000001000000011000011000100001
1000001100000000001100000100110000011000000010011011000010011010011000
00100000000000010101100100
0010100101000000000000110000010001100000100001100000011000001001100000
1000000100000000001000000110011000001000010010010001000100001110011000
00100000000000010110101000
0010000010000000000000010000110001100001000011000000001000011000100001
1000001100000010001000000100001100011000010010000001000100000110001100
01100000000000010000100000
0001000000000000000001111111000111101101000111110000000111010011110001
1100111111000011110000001110001100111111110111000011101110000010000011
10000000000000001000000000
0000111110000000000000000000000000000000000000000000000000000000000000
0000000000000000000000000000000000000000000000000000000000000000000000
00000000000000000111010000
0000000000000000000000000000000000000000000000000000000000000000000000
0000000000000000000000000000000000000000000000000000000000000000000000
00000000000000000000000000
0000000000000000000000000000000000000000000000000000000000000000000000
0000000000000000000000000000000000000000000000000000000000000000000000
00000000000000000000000000
0000000000000000000000000000000000000000000000000000000000000000000000
0000000000000000000000000000000000000000000000000000000000000000000000
00000000000000000000000000
0000000000000000000000000000000000000000000000000000000000000000000000
0000000000000000000000000000000000000000000000000000000000000000000000
00000000000000000000000000
0000000000000000000000000000000000000000000000000000000000000000000000
0000000000000000000000000000000000000000000000000000000000000000000000
00000000000000000000000000
0000000000000000000000000000000000000000000000000000000000000000000000
0000000000000000000000000000000000000000000000000000000000000000000000
00000000000000000000000000
0000000000000000000000000000000000000000000000000000000000000000000000
0000000000000000000000000000000000000000000000000000000000000000000000
00000000000000000000000000
0000000000000000000000000000000000000000000000000000000000000000000000
0000000000000000000000000000000000000000000000000000000000000000000011
11000000000000000000000000
0000000000000000000000111110100000111100001111111000000110110001111111
1111110001110111100011111100001111111000111011100011100111111110000010
00000000000000000000000000
0000000000000000000000001000110001000011000010000110001000001010001100
0100100000100011000001001100000000010000100001100000000100000100000110
00000000000000000000000000
0000000000000000000000011000011011000001000010000110011000000000000100
0001100000100001000001001100000100001100100000100010000000001100000010
00000000000000000000000000
0000000000000000000000001000010010000001100110000100001100000000001100
0000100000100001100010000100100100001101000000110100000000011000000010
00000000000000000000000000
0000000000000000000000011000110010000001100010001100000111100000000100
0001100000100000100010001101100100000110000000011000000000110000000010
00000000000000000000000000
0000000000000000000000011011000110000001100011111000000010111000001100
0001100000100000110100000110110000000110000000011000000000100000000110
00000000000000000000000000
0000000000000000000000001000000011000001000110001000000000011000000100
0000100000100000110000000101011000000011000000001000000001100000000010
00000000000000000000000000
0000000000000000000000011000000011000001000010001100010000001000001100
0001100000000000011100000110011000001001100000011000000011000000000010
00000000000000000000000000
0000000000000000000000011000000001000011000110000110010000011000001100
0000110001000000011000000010011000010000110000001000000110000010000010
00000000000000000000000000
0000000000000000000000111110000000111100000111100001011111100000011111
0000001110000000000000000010000001110000111000111110000111111110000110
00000000000000000000000000
0000000000000000000000000000000000010000000000000000000000000000000000
0000000000000000000000000000000000000000000000000000000000000000000010
00000000000000000000000000
0000000000000000000000000000000001111100000000000000000000000000000000
0000000000000000000000000000000000000000000000000000000000000000000010
00000000000000000000000000
0011111111000000000000000000000000000111100000000000000000000000000000
0000000000000000000000000000000000000000000000000000000000000000000111
00000000000000011111111000
0000000000000000000000000000000000000000000000000000000000000000000000
0000000000000000000000000000000000000000000000000000000000000000000001
01000000000000000000000000
0000000000000000000000000000000000000000000000000000000000000000000000
0000000000000000000000000000000000000000000000000000000000000000000000
00000000000000000000000000
0000000000000000000000000000000000000000000000000000000000000000000000
0000000000000000000000000000000000000000000000000000000000000000000000
00000000000000000000000000
0000000000000000000000000000000000000000000000000000000000000000000000
0000000000000000000000000000000000000000000000000000000000000000000000
00000000000000000000000000
0000000010000000000000010000000000111100000000000000000000000000011000
0000000000000011000000000000000000000001110000000000000000001110000000
00000000000000000000010000
0000001000000000000000010000000000001000000000110000000000000000001100
0000000000000011000000000000000000000000100000000000000000110010000000
00000000000000000001000000
0000001000000000000000001000000000000100000000110000000000000000000110
0000000000000001000000000000000000000000110000000000000001100000000000
00000000000000000001000000
0000001000000000000000001000000000001100000000101000000000000000000000
0000011110000001111100000011110000001111100000011100000001000000000111
10100000000000000001000000
0000001000000000000000000100000000000100000001001000000000000000000000
0000100011000011000011000100001100010000110001100011000011111100001000
11000000000000000001000000
0000011000000000000000000100000000001000000001000100000000000000000000
0000100001000001000011000100000100100000100001000001000001100000011000
01000000000000000011000000
0000001000000000000000000010000000001100000010000100000000000000000000
0000000011000011000001001100000000110000110011111111000001000000001000
11000000000000000001000000
0000100000000000000000000010000000000100000000000000000000000000000000
0000110011000001000001101100000000100000100011000000000001100000001100
10000000000000000100000000
0000010000000000000000000001000000001100000000000000000000000000000000
0001100001000001000011000100000000110000110001000000000000100000000101
00000000000000000010000000
0000001000000000000000000001000000000100000000000000000000000000000000
0001100011000011100010000110000100011000110001100001000001100000001000
00000000000000000001000000
0000001000000000000000000000100000000100000000000000000000000000000000
0000111101110001011100000011111000001110110000011010000011110100001111
11100000000000000001000000
0000011000000000000000000000100000001100000000000000000000000000000000
0000000000000000000000000000000000000000000000000000000000000000001000
01100000000000000011000000
0000001000000000000000000000010000001000000000000000000000000000000000
0000000000000000000000000000000000000000000000000000000000000000010000
00100000000000000001000000
0000001000000000000000000000000000001100000000000000011111111000000000
0000000000000000000000000000000000000000000000000000000000000000011000
00100000000000000001000000
0000000110000000000000000000000000111000000000000000000000000000000000
0000000000000000000000000000000000000000000000000000000000000000001101
10000000000000000000110000
0000000000000000000000000000000000000000000000000000000000000000000000
0000000000000000000000000000000000000000000000000000000000000000000000
00000000000000000000000000
0000000000000000000000000000000000000000000000000000000000000000000000
0000000000000000000000000000000000000000000000000000000000000000000000
00000000000000000000000000
0000000000000000000000000000000000000000000000000000000000000000000000
0000000000000000000000000000000000000000000000000000000000000000000000
00000000000000000000000000
0001100000000000000000110000000000001000000000011000011000000000011100
0000000000000000000000000000000000000000000000000000000000000000000000
00000000000000001100000000
0000010000000000000000011000000000001000000000001000001000000000000100
0000000000000000000000000000000000000000000000000000000000000000000000
00000000000000000010000000
0000011000000000000000010000000000000000000000000000001100000000001100
0000000000000000000000000000000000000000000000000000000000000000000000
00000000000000000011000000
0000001000000000000000010111100001111000000001111000001000111000000100
0011011011100011001110000011110000110111100000111101000011100111000111
10000000000000000001000000
0000001000000000000000011000110000001000000000001000001100100000001100
0001101100100001110010000100001100011000110001000011000000111010001000
01000000000000000001000000
0000011000000000000000011000100000001000000000001100001001000000000100
0001000100110001000011001100001100110000010011000010000001100000001000
00000000000000000011000000
0000001000000000000000010000110000011000000000001000001111000000000100
0001100100100001000011001000000100010000011010000011000000100000001111
01000000000000000001000000
0000000100000000000000010000100000001000000000001000001011000000001100
0001001100110001100010001100000100010000010011000010000001100000000011
11100000000000000000100000
0000001000000000000000011000110000001100000000001100001001100000000100
0001100100100001000011001100000110011000110011000011000000100000000000
00100000000000000001000000
0000010000000000000000010000100000001000000000011000001100110000001100
0001001100110001100010000110001100011000100001100011000001100000011000
01100000000000000010000000
0000011000000000000001111001111001111111000000001000011100011000111111
1001100100110011100111100001110000010111100000111110000111111000001101
10000000000000000011000000
0000001000000000000000000000000000000000000100010000000000000000000000
0000000000000000000000000000000000010000000000000011000000000000000000
00000000000000000001000000
0000001000000000000000000000000000000000000011110000000000000000000000
0000000000000000000000000000000000110000000000000010000000000000000000
00000000000000000001000000
0000010000000000000000000000000000000000000000000000000000000000000000
0000000000000000000000000000000000011000000000000011000000000000000000
00000000000000000010000000
0001100000000000000000000000000000000000000000000000000000000000000000
0000000000000000000000000000000000111000000000000111000000000000000000
00000000000000001100000000
0000000000000000000000000000000000000000000000000000000000000000000000
0000000000000000000000000000000000000000000000000000000000000000000000
00000000000000000000000000
0000000000000000000000000000000000000000000000000000000000000000000000
0000000000000000000000000000000000000000000000000000000000000000000000
00000000000000000000000000
0000000000000000000000000000000000000000000000000000000000000000000000
0000000000000000000000000000000000000000000000000000000000000000000000
00000000000000000000000000
0000000000000000000000000000000000000000000000000000000000000000000000
0000000000000000000000000000001000000010000000100000000000000000000000
00000000000000000000000000
0000000000000000000000001000000000000000000000000000000000000000000000
0000000000000000000000000000110000000000000000010000000000000000000000
00000000000000000000000000
0000000000000000000000001100000000000000000000000000000000000000000000
0000000000000000000000000000100000000010000000011000000000000000000000
00000000000000000000000000
0000000000000000000000001000000011000111000111000111111000001101110001
1001110001110001110111000000100000000010000000001000000000000000000000
00000000000000000000000000
0000000000000000000000011111100001000010000011000000011000001000110001
0000100000000010000110000000100000000000000000011000000000000000000000
00000000000000000000000000
0000110001000000000000001000000001100011000011000100010001001000011010
0000110001000000000100000001100000000100000000001000000001100010000000
00000000000000000110001000
0001001110000000000000001100000001000010000001000100001011001000001100
0000010001000000011000000001000000000010000000001000000010011100000000
00000000000000001001110000
0000000000000000000000001000000011000011000001101000001101100000001100
0000011010000000010000000010000000000010000000000100000000000000000000
00000000000000000000000000
0000000000000000000000001100000001000010000000110000001100110000010110
0000011010000000110000000000100000000000000000001000000000000000000000
00000000000000000000000000
0000000000000000000000001100010001100111000000110000001100110000100011
0000001100000001100001000001100000000010000000011000000000000000000000
00000000000000000000000000
0000000000000000000000000111000000111011000000010000001000010001110011
1100001100000011011111000000100000000100000000010000000000000000000000
00000000000000000000000000
0000000000000000000000000000000000000000000000000000000000000000000000
0000000100000000000000000000100000000010000000001000000000000000000000
00000000000000000000000000
0000000000000000000000000000000000000000000000000000000000000000000000
0000001000000000000000000000100000000000000000001000000000000000000000
00000000000000000000000000
0000000000000000000000000000000000000000000000000000000000000000000000
0000001000000000000000000000100000000010000000010000000000000000000000
00000000000000000000000000
0000000000000000000000000000000000000000000000000000000000000000000000
0000110000000000000000000000011000000010000000110000000000000000000000
00000000000000000000000000
0000000000000000000000000000000000000000000000000000000000000000000000
0000000000000000000000000000000000000000000000000000000000000000000000
00000000000000000000000000
0000000000000000000000000000000000000000000000000000000000000000000000
0000000000000000000000000000000000000000000000000000000000000000000000
00000000000000000000000000
0000000000000000000000000000000000000000000000000000000000000000000000
0000000000000000000000000000000000000000000000000000000000000000000000
00000000000000000000000000
0000000000000000000000000000000000000000000000000000000000000000000000
0000000000000000000000000000000000000000000000000000000000000000000000
00000000000000000000000000
0000000000000000000000000000000000000000000000000000000000000000000000
0000000000000000000000000000000000000000000000000000000000000000000000
00000000000000000000000000
0000000000000000000000000000000000000000000000000000000000000000000000
0000000000000000000000000000000000000000000000000000000000000000000000
00000000000000000000000000
0000000000000000000000000000000000000000000000000000000000000000000000
0000000000000000000000000000000000000000000000000000000000000000000000
00000000000000000000000000
0000000000000000000000000000000000000000000000000000000000000000000000
0000000000000000000000000000000000000000000000000000000000000000000000
00000000000000000000000000
0000000000000000000000000000000000000000000000000000000000000000000000
0000000000000000000000000000000000000000000000000000000000000000000000
00000000000000000000000000
0000000000000000000000000000000000000000000000000000000000000000000000
0000000000000000000000000000000000000000000000000000000000000000000000
00000000000000000000000000
0000000000000000000000000000000000000000000000000000000000000000000000
0000000000000000000000000000000000000000000000000000000000000000000000
00000000000000000000000000
0000000000000000000000000000000000000000000000000000000000000000000000
0000000000000000000000000000000000000000000000000000000000000000000000
00000000000000000000000000
0000000000000000000000000000000000000000000000000000000000000000000000
0000000000000000000000000000000000000000000000000000000000000000000000
00000000000000000000000000
0000000000000000000000000000000000000000000000000000000000000000000000
0000000000000000000000000000000000000000000000000000000000000000000000
00000000000000000000000000
0000000000000000000000000000000000000000000000000000000000000000000000
0000000000000000000000000000000000000000000000000000000000000000000000
00000000000000000000000000
0000000000000000000000000000000000000000000000000000000000000000000000
0000000000000000000000000000000000000000000000000000000000000000000000
00000000000000000000000000
0000000000000000000000000000000000000000000000000000000000000000000000
0000000000000000000000000000000000000000000000000000000000000000000000
00000000000000000000000000
0000000000000000000000000000000000000000000000000000000000000000000000
0000000000000000000000000000000000000000000000000000000000000000000000
00000000000000000000000000
0000000000000000000000000000000000000000000000000000000000000000000000
0000000000000000000000000000000000000000000000000000000000000000000000
00000000000000000000000000
0000000000000000000000000000000000000000000000000000000000000000000000
0000000000000000000000000000000000000000000000000000000000000000000000
00000000000000000000000000
0000000000000000000000000000000000000000000000000000000000000000000000
0000000000000000000000000000000000000000000000000000000000000000000000
00000000000000000000000000
0000000000000000000000000000000000000000000000000000000000000000000000
0000000000000000000000000000000000000000000000000000000000000000000000
00000000000000000000000000
0000000000000000000000001001100000000000000000000110000000000000000000
0000001110000000110000000000010000000000000000000000000000000000000001
00000000000000000000000000
0011000011100000000000001101100000000000000000000100000011000000000000
0000011000000000011000000000010000000000000000000000000000000000000000
00000000000000011000011100
0001100011000000000000001001000000000000000000001000000011000000000000
0000001000000000001100000000000000000000000000000000000000000000000001
00000000000000011100011000
0011100101000000000000001001000000000000000000001000000100100000000000
0000001000000000000000000011110000110111100000111101000111000111000010
00000000000000001100101000
0000110011000000000000001001000000000000000000001000000100100000000000
0000001000000000000000000000011000111000110001000011000010000010000001
00000000000000000110011000
0010110101000000000000000000000000000000000000010000000100010000000000
0000011000000000000000000000010000010000010011000010000011000100000000
00000000000000010101001000
0000011001000000000000000000000000000000000000100000001000010000000000
0000001000000000000000000000010000010000011010000011000001000100000001
00000000000000000111001000
0010011001000000000000000000000000000000000000100000000000000000000000
0000001000000000000000000000011000010000010011000011000001101000000010
00000000000000010011001000
0000010001000000000000000000000000000000000000100000000000000000000000
0000011000000000000000000000010000110000110011000010000001101000000001
00000000000000000010001000
0010000011000000000000000000000000011000000001000000000000000000000000
0000001000000000000000000000110000011000100001000011000000110000000000
00000000000000010000011000
0111000011100000000000000000000000011000000010000000000000000000000000
0000001000000000000000000000010000011111000000111110000000110000000001
00000000000000111000011100
0000000000000000000000000000000000001000000010000000000000000000000000
0000001000000000000000000100110000010000000000000011000000000000000010
00000000000000000000000000
0000000000000000000000000000000000010000000010000000000000000000000000
0000011000000000000000000111000000110000000000000010000000100000000001
00000000000000000000000000
0000000000000000000000000000000000000000000000000000000000000001111111
1000001100000000000000000000000000010000000000000011000000100000000000
00000000000000000000000000
0000000000000000000000000000000000000000000000000000000000000000000000
0000001011000000000000000000000000111100000000000111000111000000000001
00000000000000000000000000
