P1
25 25
1111111111111111111111111
1000000000001000000000001
1000000000001000000000001
1000000000001000000000001
1000100011111111100010001
1000100000000000000010001
1000100000000000000010001
1000100000000000000010001
1111111110001000111111111
1000000000001000000000001
1000000000001000000000001
1000000000001000000000001
1000100011111111100010001
1000100010000000100010001
1000100010000000100010001
1000100010000000100010001
1111100010001000100011111
1000000010001000100000001
1000000010001000100000001
1000000010001000100000001
1000111110001000111110001
1000000000000000000000001
1000000000000000000000001
1000000000000000000000001
1111100011111111100011111
