P1
21 18
000000000000010101000
000000000000101111000
000000000000011010000
000000000000010101000
000000000000111011000
000000000000001101000
000000000000110110000
000000000000011011000
000000000000010110000
000000000000011011000
000000000000101101000
000000000000011011000
000000000000101101000
000000000000000000000
000000000000000000000
000000000000000000000
000000000000000000000
000000000000000000000
